<mxfile host="Electron" modified="2023-11-18T08:49:12.097Z" agent="Mozilla/5.0 (Windows NT 10.0; Win64; x64) AppleWebKit/537.36 (KHTML, like Gecko) draw.io/22.1.2 Chrome/114.0.5735.289 Electron/25.9.4 Safari/537.36" etag="pPpBw14SqtmEbfXy8mj-" version="22.1.2" type="device">
  <diagram name="Side-1" id="D67fDdSKkp3F1Dts5mDe">
    <mxGraphModel dx="1098" dy="820" grid="1" gridSize="10" guides="1" tooltips="1" connect="1" arrows="1" fold="1" page="1" pageScale="1" pageWidth="827" pageHeight="1169" math="0" shadow="0">
      <root>
        <mxCell id="0" />
        <mxCell id="1" parent="0" />
        <mxCell id="Nl1uWJzNFhn3NTG8wATY-12" style="edgeStyle=orthogonalEdgeStyle;rounded=0;orthogonalLoop=1;jettySize=auto;html=1;exitX=0.5;exitY=1;exitDx=0;exitDy=0;entryX=0.5;entryY=0;entryDx=0;entryDy=0;" edge="1" parent="1" source="Y0DjYusV3i2xbhWDqkis-1" target="Nl1uWJzNFhn3NTG8wATY-10">
          <mxGeometry relative="1" as="geometry" />
        </mxCell>
        <mxCell id="Y0DjYusV3i2xbhWDqkis-1" value="Start" style="ellipse;whiteSpace=wrap;html=1;" parent="1" vertex="1">
          <mxGeometry x="129" y="45" width="120" height="30" as="geometry" />
        </mxCell>
        <mxCell id="Nl1uWJzNFhn3NTG8wATY-41" style="edgeStyle=orthogonalEdgeStyle;rounded=0;orthogonalLoop=1;jettySize=auto;html=1;exitX=0.5;exitY=1;exitDx=0;exitDy=0;entryX=0.5;entryY=0;entryDx=0;entryDy=0;" edge="1" parent="1" source="fFVhfhlXH5NjH_UO-ndJ-1" target="fFVhfhlXH5NjH_UO-ndJ-7">
          <mxGeometry relative="1" as="geometry" />
        </mxCell>
        <mxCell id="fFVhfhlXH5NjH_UO-ndJ-1" value="Et tilfældigt ord hentes fra array og er gemt som secretWord, og obscuredWord bliver oprettet. obscuredWord vises (ProcessWord)" style="rounded=1;whiteSpace=wrap;html=1;" parent="1" vertex="1">
          <mxGeometry x="67" y="250" width="241" height="100" as="geometry" />
        </mxCell>
        <mxCell id="fFVhfhlXH5NjH_UO-ndJ-2" style="edgeStyle=orthogonalEdgeStyle;rounded=0;orthogonalLoop=1;jettySize=auto;html=1;exitX=0.5;exitY=1;exitDx=0;exitDy=0;" parent="1" edge="1" target="fFVhfhlXH5NjH_UO-ndJ-1">
          <mxGeometry relative="1" as="geometry">
            <mxPoint x="187" y="150" as="sourcePoint" />
            <mxPoint x="187" y="194" as="targetPoint" />
          </mxGeometry>
        </mxCell>
        <mxCell id="fFVhfhlXH5NjH_UO-ndJ-9" style="edgeStyle=orthogonalEdgeStyle;rounded=0;orthogonalLoop=1;jettySize=auto;html=1;exitX=0.5;exitY=1;exitDx=0;exitDy=0;" parent="1" edge="1">
          <mxGeometry relative="1" as="geometry">
            <mxPoint x="187" y="534" as="targetPoint" />
            <mxPoint x="187" y="484" as="sourcePoint" />
          </mxGeometry>
        </mxCell>
        <mxCell id="fFVhfhlXH5NjH_UO-ndJ-7" value="Bruger indtaster bogstaver (GetUserKey)" style="rounded=1;whiteSpace=wrap;html=1;" parent="1" vertex="1">
          <mxGeometry x="118" y="424" width="139" height="60" as="geometry" />
        </mxCell>
        <mxCell id="Nl1uWJzNFhn3NTG8wATY-39" style="edgeStyle=orthogonalEdgeStyle;rounded=0;orthogonalLoop=1;jettySize=auto;html=1;exitX=1;exitY=0.5;exitDx=0;exitDy=0;" edge="1" parent="1" source="fFVhfhlXH5NjH_UO-ndJ-8" target="fFVhfhlXH5NjH_UO-ndJ-24">
          <mxGeometry relative="1" as="geometry" />
        </mxCell>
        <mxCell id="Nl1uWJzNFhn3NTG8wATY-40" style="edgeStyle=orthogonalEdgeStyle;rounded=0;orthogonalLoop=1;jettySize=auto;html=1;exitX=0.5;exitY=1;exitDx=0;exitDy=0;entryX=0;entryY=1;entryDx=0;entryDy=0;" edge="1" parent="1" source="fFVhfhlXH5NjH_UO-ndJ-8" target="fFVhfhlXH5NjH_UO-ndJ-18">
          <mxGeometry relative="1" as="geometry" />
        </mxCell>
        <mxCell id="fFVhfhlXH5NjH_UO-ndJ-8" value="Findes bogstavet i ordet?&lt;br&gt;(IsKeyInWord)" style="rhombus;whiteSpace=wrap;html=1;" parent="1" vertex="1">
          <mxGeometry x="80" y="679" width="210" height="80" as="geometry" />
        </mxCell>
        <mxCell id="fFVhfhlXH5NjH_UO-ndJ-42" style="edgeStyle=orthogonalEdgeStyle;rounded=0;orthogonalLoop=1;jettySize=auto;html=1;exitX=1;exitY=0.5;exitDx=0;exitDy=0;" parent="1" source="fFVhfhlXH5NjH_UO-ndJ-14" target="fFVhfhlXH5NjH_UO-ndJ-7" edge="1">
          <mxGeometry relative="1" as="geometry">
            <Array as="points">
              <mxPoint x="310" y="1015" />
              <mxPoint x="310" y="460" />
            </Array>
            <mxPoint x="260" y="450" as="targetPoint" />
          </mxGeometry>
        </mxCell>
        <mxCell id="Nl1uWJzNFhn3NTG8wATY-35" style="edgeStyle=orthogonalEdgeStyle;rounded=0;orthogonalLoop=1;jettySize=auto;html=1;exitX=0.5;exitY=1;exitDx=0;exitDy=0;" edge="1" parent="1" source="fFVhfhlXH5NjH_UO-ndJ-14" target="fFVhfhlXH5NjH_UO-ndJ-29">
          <mxGeometry relative="1" as="geometry" />
        </mxCell>
        <mxCell id="fFVhfhlXH5NjH_UO-ndJ-14" value="Er ordet gættet? &lt;br&gt;Sammenlign &lt;br&gt;de to arrays&lt;br&gt;(IsWordGuessed)" style="rhombus;whiteSpace=wrap;html=1;" parent="1" vertex="1">
          <mxGeometry x="59.129999999999995" y="970" width="237.75" height="90" as="geometry" />
        </mxCell>
        <mxCell id="fFVhfhlXH5NjH_UO-ndJ-17" value="Nej" style="text;html=1;strokeColor=none;fillColor=none;align=center;verticalAlign=middle;whiteSpace=wrap;rounded=0;" parent="1" vertex="1">
          <mxGeometry x="260" y="690" width="60" height="30" as="geometry" />
        </mxCell>
        <mxCell id="fFVhfhlXH5NjH_UO-ndJ-18" value="Ja" style="text;html=1;strokeColor=none;fillColor=none;align=center;verticalAlign=middle;whiteSpace=wrap;rounded=0;" parent="1" vertex="1">
          <mxGeometry x="184.5" y="763" width="60" height="30" as="geometry" />
        </mxCell>
        <mxCell id="Nl1uWJzNFhn3NTG8wATY-34" value="" style="edgeStyle=orthogonalEdgeStyle;rounded=0;orthogonalLoop=1;jettySize=auto;html=1;" edge="1" parent="1" source="fFVhfhlXH5NjH_UO-ndJ-19" target="fFVhfhlXH5NjH_UO-ndJ-29">
          <mxGeometry relative="1" as="geometry" />
        </mxCell>
        <mxCell id="fFVhfhlXH5NjH_UO-ndJ-19" value="Ja" style="text;html=1;strokeColor=none;fillColor=none;align=center;verticalAlign=middle;whiteSpace=wrap;rounded=0;" parent="1" vertex="1">
          <mxGeometry x="196" y="1061" width="60" height="30" as="geometry" />
        </mxCell>
        <mxCell id="Nl1uWJzNFhn3NTG8wATY-27" style="edgeStyle=orthogonalEdgeStyle;rounded=0;orthogonalLoop=1;jettySize=auto;html=1;exitX=0.5;exitY=0;exitDx=0;exitDy=0;" edge="1" parent="1" source="fFVhfhlXH5NjH_UO-ndJ-24" target="Nl1uWJzNFhn3NTG8wATY-21">
          <mxGeometry relative="1" as="geometry" />
        </mxCell>
        <mxCell id="fFVhfhlXH5NjH_UO-ndJ-24" value="Tilføj +1 til wrongGuessNumber&lt;br&gt;Har bruger flere forsøg?&lt;br&gt;(IsThereMoreAttempts)" style="rhombus;whiteSpace=wrap;html=1;" parent="1" vertex="1">
          <mxGeometry x="339" y="659" width="261" height="120" as="geometry" />
        </mxCell>
        <mxCell id="fFVhfhlXH5NjH_UO-ndJ-27" value="Ja" style="text;html=1;strokeColor=none;fillColor=none;align=center;verticalAlign=middle;whiteSpace=wrap;rounded=0;" parent="1" vertex="1">
          <mxGeometry x="490" y="630" width="60" height="30" as="geometry" />
        </mxCell>
        <mxCell id="Nl1uWJzNFhn3NTG8wATY-7" style="edgeStyle=orthogonalEdgeStyle;rounded=0;orthogonalLoop=1;jettySize=auto;html=1;exitX=0.5;exitY=0;exitDx=0;exitDy=0;" edge="1" parent="1" source="fFVhfhlXH5NjH_UO-ndJ-29" target="Nl1uWJzNFhn3NTG8wATY-15">
          <mxGeometry relative="1" as="geometry">
            <mxPoint x="570" y="970" as="targetPoint" />
            <Array as="points">
              <mxPoint x="410" y="1136" />
              <mxPoint x="410" y="971" />
            </Array>
          </mxGeometry>
        </mxCell>
        <mxCell id="fFVhfhlXH5NjH_UO-ndJ-29" value="Vindermeddelelse&lt;br&gt;(YouWin)" style="rounded=1;whiteSpace=wrap;html=1;direction=south;" parent="1" vertex="1">
          <mxGeometry x="115.5" y="1091" width="125" height="90" as="geometry" />
        </mxCell>
        <mxCell id="Nl1uWJzNFhn3NTG8wATY-14" style="edgeStyle=orthogonalEdgeStyle;rounded=0;orthogonalLoop=1;jettySize=auto;html=1;exitX=1;exitY=0.5;exitDx=0;exitDy=0;entryX=0;entryY=0.5;entryDx=0;entryDy=0;" edge="1" parent="1" source="fFVhfhlXH5NjH_UO-ndJ-34">
          <mxGeometry relative="1" as="geometry">
            <mxPoint x="661.5" y="920" as="targetPoint" />
          </mxGeometry>
        </mxCell>
        <mxCell id="fFVhfhlXH5NjH_UO-ndJ-34" value="Tabermeddelelse&lt;br&gt;(YouLose)" style="rounded=1;whiteSpace=wrap;html=1;direction=south;" parent="1" vertex="1">
          <mxGeometry x="640" y="674" width="125" height="90" as="geometry" />
        </mxCell>
        <mxCell id="fFVhfhlXH5NjH_UO-ndJ-35" value="Nej" style="text;html=1;strokeColor=none;fillColor=none;align=center;verticalAlign=middle;whiteSpace=wrap;rounded=0;" parent="1" vertex="1">
          <mxGeometry x="572.25" y="680" width="60" height="30" as="geometry" />
        </mxCell>
        <mxCell id="fFVhfhlXH5NjH_UO-ndJ-39" style="edgeStyle=orthogonalEdgeStyle;rounded=0;orthogonalLoop=1;jettySize=auto;html=1;exitX=1;exitY=0.5;exitDx=0;exitDy=0;" parent="1" source="fFVhfhlXH5NjH_UO-ndJ-24" target="fFVhfhlXH5NjH_UO-ndJ-34" edge="1">
          <mxGeometry relative="1" as="geometry" />
        </mxCell>
        <mxCell id="Nl1uWJzNFhn3NTG8wATY-5" style="edgeStyle=orthogonalEdgeStyle;rounded=0;orthogonalLoop=1;jettySize=auto;html=1;exitX=0.5;exitY=1;exitDx=0;exitDy=0;entryX=0.5;entryY=0;entryDx=0;entryDy=0;" edge="1" parent="1" source="Nl1uWJzNFhn3NTG8wATY-4" target="fFVhfhlXH5NjH_UO-ndJ-8">
          <mxGeometry relative="1" as="geometry" />
        </mxCell>
        <mxCell id="Nl1uWJzNFhn3NTG8wATY-4" value="Er keystroke et bogstav/ &lt;br&gt;Har det været brugt før?&lt;br&gt;(IsKeyValid/UsedLetter)" style="rhombus;whiteSpace=wrap;html=1;" vertex="1" parent="1">
          <mxGeometry x="81" y="533" width="208" height="107" as="geometry" />
        </mxCell>
        <mxCell id="Nl1uWJzNFhn3NTG8wATY-9" style="edgeStyle=orthogonalEdgeStyle;rounded=0;orthogonalLoop=1;jettySize=auto;html=1;exitX=1;exitY=0.5;exitDx=0;exitDy=0;entryX=1;entryY=0.5;entryDx=0;entryDy=0;exitPerimeter=0;" edge="1" parent="1" source="Nl1uWJzNFhn3NTG8wATY-15" target="fFVhfhlXH5NjH_UO-ndJ-1">
          <mxGeometry relative="1" as="geometry">
            <mxPoint x="724" y="965" as="sourcePoint" />
          </mxGeometry>
        </mxCell>
        <mxCell id="Nl1uWJzNFhn3NTG8wATY-10" value="Fixed Data Setup&lt;br&gt;Fixed text, Frames, Logo, Galge, Træ,&lt;br&gt;secretWordArray (Setup)" style="shape=parallelogram;html=1;strokeWidth=2;perimeter=parallelogramPerimeter;whiteSpace=wrap;rounded=1;arcSize=12;size=0.23;" vertex="1" parent="1">
          <mxGeometry x="20" y="100" width="330" height="90" as="geometry" />
        </mxCell>
        <mxCell id="Nl1uWJzNFhn3NTG8wATY-17" style="edgeStyle=orthogonalEdgeStyle;rounded=0;orthogonalLoop=1;jettySize=auto;html=1;exitX=0.5;exitY=1;exitDx=0;exitDy=0;exitPerimeter=0;" edge="1" parent="1" source="Nl1uWJzNFhn3NTG8wATY-15" target="Nl1uWJzNFhn3NTG8wATY-16">
          <mxGeometry relative="1" as="geometry" />
        </mxCell>
        <mxCell id="Nl1uWJzNFhn3NTG8wATY-15" value="Play Again (PlayAgain)" style="strokeWidth=2;html=1;shape=mxgraph.flowchart.decision;whiteSpace=wrap;" vertex="1" parent="1">
          <mxGeometry x="572.25" y="921" width="178.5" height="100" as="geometry" />
        </mxCell>
        <mxCell id="Nl1uWJzNFhn3NTG8wATY-16" value="Exit&lt;br&gt;(EndGame)" style="rounded=1;whiteSpace=wrap;html=1;absoluteArcSize=1;arcSize=14;strokeWidth=2;" vertex="1" parent="1">
          <mxGeometry x="611.5" y="1050" width="100" height="60" as="geometry" />
        </mxCell>
        <mxCell id="Nl1uWJzNFhn3NTG8wATY-18" value="Nej" style="text;html=1;strokeColor=none;fillColor=none;align=center;verticalAlign=middle;whiteSpace=wrap;rounded=0;" vertex="1" parent="1">
          <mxGeometry x="611.5" y="1016" width="60" height="30" as="geometry" />
        </mxCell>
        <mxCell id="Nl1uWJzNFhn3NTG8wATY-19" value="Ja" style="text;html=1;strokeColor=none;fillColor=none;align=center;verticalAlign=middle;whiteSpace=wrap;rounded=0;" vertex="1" parent="1">
          <mxGeometry x="720" y="940" width="60" height="30" as="geometry" />
        </mxCell>
        <mxCell id="Nl1uWJzNFhn3NTG8wATY-20" value="Fields:&lt;br&gt;wrongGuessNumber&lt;br&gt;uedLetter&lt;br&gt;obscuredWord" style="shape=parallelogram;html=1;strokeWidth=2;perimeter=parallelogramPerimeter;whiteSpace=wrap;rounded=1;arcSize=12;size=0.23;" vertex="1" parent="1">
          <mxGeometry x="414" y="30" width="244" height="90" as="geometry" />
        </mxCell>
        <mxCell id="Nl1uWJzNFhn3NTG8wATY-28" style="edgeStyle=orthogonalEdgeStyle;rounded=0;orthogonalLoop=1;jettySize=auto;html=1;exitX=0.5;exitY=0;exitDx=0;exitDy=0;" edge="1" parent="1" source="Nl1uWJzNFhn3NTG8wATY-21" target="Nl1uWJzNFhn3NTG8wATY-24">
          <mxGeometry relative="1" as="geometry" />
        </mxCell>
        <mxCell id="Nl1uWJzNFhn3NTG8wATY-21" value="Input Key Stroke i usedLetter og vis det på skærmen (KeyUsed)" style="rounded=1;whiteSpace=wrap;html=1;absoluteArcSize=1;arcSize=14;strokeWidth=2;" vertex="1" parent="1">
          <mxGeometry x="409.5" y="555" width="120" height="60" as="geometry" />
        </mxCell>
        <mxCell id="Nl1uWJzNFhn3NTG8wATY-29" style="edgeStyle=orthogonalEdgeStyle;rounded=0;orthogonalLoop=1;jettySize=auto;html=1;exitX=0.5;exitY=0;exitDx=0;exitDy=0;" edge="1" parent="1" source="Nl1uWJzNFhn3NTG8wATY-24" target="fFVhfhlXH5NjH_UO-ndJ-7">
          <mxGeometry relative="1" as="geometry" />
        </mxCell>
        <mxCell id="Nl1uWJzNFhn3NTG8wATY-24" value="Vis HangMan-del&lt;br&gt;(DrawHangMan)" style="rounded=1;whiteSpace=wrap;html=1;absoluteArcSize=1;arcSize=14;strokeWidth=2;" vertex="1" parent="1">
          <mxGeometry x="409.5" y="470" width="120" height="60" as="geometry" />
        </mxCell>
        <mxCell id="Nl1uWJzNFhn3NTG8wATY-37" style="edgeStyle=orthogonalEdgeStyle;rounded=0;orthogonalLoop=1;jettySize=auto;html=1;exitX=0.5;exitY=1;exitDx=0;exitDy=0;" edge="1" parent="1" source="Nl1uWJzNFhn3NTG8wATY-31" target="Nl1uWJzNFhn3NTG8wATY-33">
          <mxGeometry relative="1" as="geometry" />
        </mxCell>
        <mxCell id="Nl1uWJzNFhn3NTG8wATY-31" value="Input Key Stroke i usedLetter og vis det på skærmen (KeyUsed)" style="rounded=1;whiteSpace=wrap;html=1;absoluteArcSize=1;arcSize=14;strokeWidth=2;" vertex="1" parent="1">
          <mxGeometry x="110" y="792" width="134.5" height="60" as="geometry" />
        </mxCell>
        <mxCell id="Nl1uWJzNFhn3NTG8wATY-36" style="edgeStyle=orthogonalEdgeStyle;rounded=0;orthogonalLoop=1;jettySize=auto;html=1;exitX=0.5;exitY=1;exitDx=0;exitDy=0;" edge="1" parent="1" source="Nl1uWJzNFhn3NTG8wATY-33" target="fFVhfhlXH5NjH_UO-ndJ-14">
          <mxGeometry relative="1" as="geometry" />
        </mxCell>
        <mxCell id="Nl1uWJzNFhn3NTG8wATY-33" value="Create obscuredWordArray og secretWordArray.&lt;br&gt;Input Key Stroke i obscuredWordArray og vis det på skærmen (ShowKeyInWord)" style="rounded=1;whiteSpace=wrap;html=1;absoluteArcSize=1;arcSize=14;strokeWidth=2;" vertex="1" parent="1">
          <mxGeometry x="63" y="880" width="230" height="60" as="geometry" />
        </mxCell>
        <mxCell id="Nl1uWJzNFhn3NTG8wATY-42" value="" style="shape=image;verticalLabelPosition=bottom;labelBackgroundColor=default;verticalAlign=top;aspect=fixed;imageAspect=0;image=data:image/png,iVBORw0KGgoAAAANSUhEUgAAAn8AAAHZCAYAAAD3412VAAAAAXNSR0IArs4c6QAAAARnQU1BAACxjwv8YQUAAAAJcEhZcwAADsMAAA7DAcdvqGQAAE66SURBVHhe7d0J/BxFnf//mu83+eb6JkBCghJOIYQbCfcVwmESQbl0FXaFFVeUXXVdIP7XI/yWhbjuY82Cx7quoKKCiKuCIAJBVIgsV5QjCAECcgdISDhCvjm+x/zrXdP1TWfy/U7XzPTMd2b69dRmrv52V1dVd3+6qrqT6+zszBsAAABkQlv0CgAAgAwg+AMAAMgQgj8AAIAMIfgDAADIEII/AACADCH4AwAAyBCCPwAAgAwh+AMAAMgQgj8AAIAMIfgDAADIEII/AACADCH4AwAAyBCCPwAAgAwh+AMAAMgQgj8AAIAMIfgDAADIEII/AACADCH4AwAAyBCCPwAAgAwh+AMAAMiQXGdnZz56H2zumPnROwAAAAyVeWvmRO/C0fIHAACQIRW3/FUSaQIAACAdlcZjtPwBAABkCMEfAABAhhD8AQAAZAjBHwAAQIYQ/AEAAGQIwR8AAECGEPwBAABkCMEfAABAhhD8AQAAZAjBHwAAQIYQ/AEAAGQIwR8AAECGEPwBAABkCMEfAABAhhD8AQAAZAjBHwAAQIYQ/AEAAGQIwR8AAECGEPwBAABkCMEfAABAhhD8AQAAZEius7MzH70PNnfMfDNvzZzoE5rRkbkOc2Hb2OjT5mb1rozeNY5mTDMwmJD6XM8632jpAZCs0niM4C+jJubazVTTHn3a3F35DdG7xtGMaQYGE1Kf61nnGy09AJIR/AEAAGRIpfEYY/4AAAAyhOAPAAAgQwj+AAAAMoTgr8VNyw03l7Zv4V6rkdZyQjRjmoHBZLkesg8CjYngr8WNNjmzlxnmXquR1nJCNGOagcHUuh7q8SuVBlizciPc3+ou3lpgHwQaE8EfADQxPV5lUj5nZttArlxn5kaZrnyfWZHvjb4BkAUEfwDQ5O60AeDRNvibkhsWfZNMrX5q8bs1vz76BkBWEPwBQJP7pVlvukzezDAd0TfJZrWNNM/le3kwM5BBBH8A0OTUbbvIBnEn2IAuZPyexgdqLN6tNmgEkD0EfwDQAn6WX+durDgql9z6p/GBChiv61sbfQMgSwj+AKAFLM33uNa/00zpGz80LlDjAzVOEEA2EfwBQIvQzRvq9tXNHIPRuECND9Q4QQDZRPAHAC1CN2/oJg7dzDEQBYYaF6gWQh7vAmQXwR8AtBDdxKGbOQZ66LPGA2pcoMYHAsgugj8AaCG6iUOtegM99FnjAdXqp/GBALKL4A8AWsxAD33moc4APII/AGgxAz30mYc6A/AI/gCgxajb96r8WrPWBoCiFr8lfd3mR/ku9xlAtrV3dHRcFL0PNr1jplnYfVv0CY1sbc6YR/Pd5gnT61oCKpXWckI0Y5qBwQxVPVyS7zGLTWFsn9b7gOk2z9s01BP7IFBblcZjtPy1OLUAqJun2sc6pLWcEM2YZmAwWa6H7INAYyL4AwAAyBCCPwAAgAwh+GtxetDrpe1bDPjA13KktZwQzZhmYDBZrofsg0BjIvhrcXqav572r9dqpLWcEM2YZmAw1dTDI3MdQx486fmASoPuGC4X+yDQmAj+AKBB6WaJSfncgP9aR72cmRtluvJ93LQBtBCCPwBoYAP9ax31wr8KArQmgj8AaGAD/Wsd9cK/CgK0JoI/AGhg6m5dZIOvE2wgVsm4u0ppnKHG691qg08ArYXgDwAa3M/y69xNE0fl6tf6p3GGCjyv61sbfQOgVRD8AUCDW5rvca1/p5n63Pih8YUaZ6jxhgBaD8EfADQB3XShbl/dhFFrGl+ocYYabwig9RD8AUAT0E0XuvlCN2HUkgJMjS9USyOPdwFaE8EfADQJ3XyhmzBq+dBnjSvU+EKNMwTQmgj+AKBJ6OYLtcbV8qHPGleoVj+NMwTQmgj+AKCJ1PKhzzzUGciGXGdnZz56H2zumPlm3po50Sc0Mv3boBe2jTWX9K2u6kGtgy3Hfz+YWb0rg+aJq3WaQ9RiuwbTjMtJa11pqWeay12On7/a+uwpOLu8bQtzc986c0W+K/o2Hfo3fDvzOfOJvjeib6pTzbY3cpkOpp7LSWtdaG6VxmMEfy3OHyBqFUjpRDTVDP7gWc0bMk9crdMcohbbNZhmXE5a60pLPdNc7nLSqs9xp7WNMqPtkfvqfHrP4NN2nWJGmCWmJ7V0sg9uKs3lpLUuNDeCPwzIHyCeML1V3bmX1nJCNGOagcFkuR6yDwK1VWk8xpi/FqcDrq4Aqz3wprWcEM2YZmAwWa6H7INAYyL4AwAAyBCCPwAAgAwh+Gtxehis7uCr5UNhG1WrbnuWy7QZpVVe9Sz3ZkxzPbXqdiE7CP5anJ7Ur38RQK9ZU+626xlnOqBrkHoja5Yy1Z2etTxBZq28BltONfk8WB7WOs2DYR9MV633QTQvgj8gcmZulOnK9zE4PSUa6D8pn6vZv0ZBeRVUk8+NloeUabpqvQ+ieRH8AVat/2UDXYEvaJ9gzsmNjr4ZekqL0qS01Uqt/jWKLJZXKZXkc63zsFzsg7VRy38RBs2L4A+wZrWNNM/lC4+lqAUt91HTYw/CtTvIN6JfmvWmy+TNDJPudlNem6okn2udh+WiTGujVvsgmhvBHzJP42E0fudWe5CsJf2j/GrZ0L/O0AjW2hNCran7bpE96Z5gT+za9jRktbxKKTef65WHodgHa6cW+yCaH8EfMk/jYXSA1ImhlnzLw2mmMcbfPGsK46rUKlBLP8uvcwPjj0qpxSWr5ZWknHyuVx6GYh9srn0QzY/gD5mmcTAaD6NxMfVwfu+b5iMp/aP51dIJRyfCB/Ld0Te1sTTf41oe0jjhZrm8koTmc73zMAn7YHPtg2gNBH/INI2D0QFY42KyRiccnQjrQYP41eWkQf3VyHJ5hQjJ50bLQ/bB5toH0RoI/pBZOhBqHIyuiNXlhNpRd5sG82tQf6Uor2RJ+dxoeUiZ1k8a+yBaB8EfMkvjXzQORuNhUHsazK9B/ZU+cJbyClMqnxstDynT+qp2H0TrIPhDZmn8i1ocNB4GtafB/GrdqfSBs5RXmFL53Gh5SJnWV7X7IFoHwR8yqdEecJsVlT5wlvIqz0D53Gh5SJkOjUr3QbQWgj9UxT81f7ApdJ56S+OBso24XWmo5XZV+sBZyqs8A+VzGnmYJsp0cI24D6K1tHd0dFwUvQ82vWOmWdh9W/QJjWwHe2Wtq7yF9gD7fPRMqTStzRnzaL7bLX+gSesMmacWBtt2tTZsnc+Z39qDYDXrbrTtSkstt0snnW67fPt/s9iEdfVRXgXlLKc4n8vNw1qnmTItrdH2QTSuSuOxXGdnZ9lPl5w7Zr6Zt2ZO9AmNTAfZqabdPGEPFlm7m65Vtz3LZdqM0iqvepZ7M6a5ntgH0Sgqjcfo9m1xOjCpWyWLB6hW3fYsl2kzSqu86lnuzZjmemrV7UJ2EPwBAABkCMEfAABAhhD8tTg9zPPS9i2qfqhnWssJ0YxpDtFo29Wqy0lLo21XWssJ0YxpDtFo29Wqy0HjI/hrcXp6vp7ortdqpLWcEI2YZj16YV7b2KoOjI22Xa26HKG8qtOIaaZMB9doy0HjI/gDEpzWNspcaE86o3NtZklft1ltyr5BHnVEebUeyhRIF8EfUIKegv/J3GhzZ369Ob/3TXNFvot/iqqBUV6thzIF0kfwB5TwV7mR7vWK/Fr3isZGebUeyhRIH8EfUMJOZph51PTwPK8mQXm1HsoUSB/BH1DCjrl2N8YIzYHyaj2UKZA+gj8AAIAMIfgDAADIEII/oIQukzcTc+wmzYLyaj2UKZA+9iighEfz3WZPMyz6hEZHebUeyhRIH8EfUMIDpsdMzLW7f10AjY/yaj2UKZA+gj+ghOv61prn8r3mgrZOTj5NgPJqPZQpkD6CPyDBl/KrzTOm1/3zUte3j+//d0V1IlrQPmHQCUOD8mo9lCmQLoI/IIEeLqt/VuoLfW+Zq/Jr+/9d0SfsyeiSvtWDThgalFfroUyBdOU6OzvL/hey546Zb+atmRN9QiPTWJmppt0dJKt5Qn5aywnRjGkO0Wjb1arLSUuW84cyLY3loFFUGo8R/AEAADShSuMxun0BAAAyhOAPAAAgQwj+Wpzuiru0fYv+u+MqldZyQjRjmuup0fKn0ZbTaJoxf5oxzfXUaPnTaMtB4yP4a3GjTc7sZYa512qktZwQtU6zHg/RzAe4WudPuWq9HMqrIK3lhKh1minTglZdDhofwR8y5678BjMpnzOzcyOib9DIKK/WQ5kCQ4vgD5l0pz35HG1PPFNy/JuhzYDyaj2UKTB0CP6QSb80602XyZsZhn8uqhlQXq2HMgWGDsEfMkkPMF2U32BOaBvpHmyKxkZ5tR7KFBg6BH/IrJ/l17mBzUflaHloBpRX66FMgaFB8IfMWprvcS0PpxkGnTcDyqv1UKbA0CD4Q6bdml/vupxmcddhU6C8Wg9lCtQfwR8yTY+ceC7fa2a1jYy+QSOjvFoPZQrUH8EfMu9Ws9492JSn2jcHyqv1UKZAfRH8IfOu61vr7jys9QNnz8mNNgvaJ7h/3QCVo7xaD2UK1BfBH2DV84Gz6uZCdSiv1kOZAvVD8JdRuvLVFfBgUyOqZZqLHzgbsq5y07NH23DXulEsre1qtDJt1fJKS6OVV4hWLdO0tqvRyrTR0oPGkevs7MxH74PNHTPfzFszJ/qERqad/8K2seaSvtWbXO3q7rqpZvAHqxZfGQ+2nFoYqjSf1jbKjLZ7w9X5tUHrKjc9+ofsu/J9Zq5NT1xa2zVUZZq18ipXo5VXiKyVaVrbNVRl2mjpQf1UGo8R/LU4v/M/YXqrasVIazkhmjHNIXSl/fO+teaKfFf0TWUaLX8or9KaMX8o09IaLX9atbyQjOAPAAAgQyqNxxjzBwAAkCEEfwAAABlC8AcANaQHF+tGAx5gDKBREPwBQAL9u7MK4DQgvlyjTc796xV6BYBGQPAHAAnOzI1yjwjhDkgArYDgDwBKUKufWvxuza+PvgGA5kbwBwAlzGobaZ7L9/LQWwAtg+APAAahmzQ0Xu9WQ6sfgNZB8AcAg5idG+HG+V3Xtzb6BgCaH8EfAAxgSm6YOdoGf3fS3QugxRD8AcAAZpgO02Xy5pd0+QJoMQR/AFBEd/ee0DbSLMpv4PEuAFoOwR8AFDkq1+Eeyvyz/LroGwBoHQR/AFDkNDPCtfotzfdE3wBA6yD4A4AYHuoMoNUR/AFoekfmOsyC9gmDTqHzCA91BtDqcp2dnfnofbC5Y+abeWvmRJ8AYGippW6qaY8+bU6BXOg8p5gRZonpSS34U9B5YdtYc0nfagJKAKmqNB4j+AOAGvJB5xOmlzuHAaSq0niMbl8AqCEFfGrxI/AD0CgI/gAAADKE4A8AACBDCP4AtJRpueHm0vYt3CsAYHMEfwBaiv5ljr3MMPfaaPQMQQWmugkEAIYKwR8A1MmZuVGmK9/HzR8AhhTBHwDUAf9yCIBGQfAHAHXAvxwCoFEQ/AFAjenmE41DvNXQ6gdg6BH8AUCNzc6NcOP8rutbG30DAEOH4A8AamhKbpg52gZ/d9LdC6BBEPwBQA3NMB2my+TNL+nyBdAgCP4AoEZ0d+8JbSPNIv5tXwANhOAPAGrkqFyHe9j0z/Lrom8AYOgR/AFAjZxmRrhWv6X5nugbABh6BH8AUAM81BlAoyL4A5AJR+Y6zIL2CYNOac4jPNQZQKPKdXZ25qP3weaOmW/mrZkTfQKAxqHg7MK2seaSvtWbBF5qhZtq2qNPm9O8ac5zihlhlpgegj8ANVNpPEbwB6Cl+ODsCdPLHbYAWlql8RjdvgBaigI+tbYR+AHAwAj+AAAAMoTgDwAAIEMI/gAAADKE4A8AACBDCP4AAAAyhOAPAAAgQwj+AAAAMoTgDwAAIEMI/gAAADKE4A8AACBDKv63fQEAADC0+Ld9AQAAUFLFLX+VRJoAAABIR6XxGC1/AAAAGULwBwAAkCEEfwAAABlC8AcAAJAhBH8AAAAZQvAHAACQIQR/AAAAGULwBwAAkCEEfwAAABlC8Ie6+0hulDky1xF9Qq00Yz5TN1Br1DGA4A91Ni033JzZNtpc0NYZfYNaaJR8vrR9CzeFqDbN5ayrlSiQWdA+oX86Jzc6+qU1TMkNSy1Ya6TjT5rbBZSL4C8lAx10h/Jk5E8Es3Ij3OfP2oOdPg/1yfGBfLdZlN9gftG3NvoGtdCM+UzdqMwTptdc0rfaTa1ohukwF7aNjT5Vp5HqWJrbBZSL4K+FdZm8OcBe6cpeZpj73Ajm2pPU1XlO8LXWjPlM3SjfinyvucsGNJqQjDoGGJPr7OwsOyKYO2a+mbdmTvQJola1n9urySvyXdE3hZY/Ob/3TfeqJn5/pacD9mOmx86/1r33/N88Z787IWq1uzm/3ny97233XtRd8PdtY/oDuqvsMs7MjTI3963rX7/SoyvcnUy7OS9vD3ZtW7r07dE2PPX0hFCr6AfbRkWfjHnUrsunw5uYazenmBHmaJsuvfe+Y7fpujKu1EO2K0RIPiety/+uPFP+qUxW2GXpfXE+Ko9OaBtpRpuc+/vrzPqytltC8jmNMvXrmdW7sv/9R/reMFNtfdP2qhVKwUjIukLSLGrF/oDN/x2juqG8vC6/zrXmSFp1VYrLQmW/wC7LC11X8XIqKdOB1nWnXddAdXqg45CXVFdPs2XwSZveL/S91Z+n8sW2TrtPjnDl6+cttV3x9aiMHrDr0X6jecspj+J6Eee3MXRdoXUsqbzSOEaFbJdXnJ7iehgi9HwRzxOfr34/9tLInzTyEBtVGo+1d3R0XBS9Dza9Y6ZZ2H1b9AmicSSP5XvswWfjQXOW3UnE76wjcjnTlc+7+ey+Yw63B9SpdseM78z6m0n5nBlu513Yt97k7esRdifpsvMv0d9Zc9vHmp3tSfb7die+x+6Yx7aNMJPt5/j6lR79tpcN9tpteK/lvJbvcztb2ukJsTqXN3+yJ5SFNk06kawwfZsdxP7GHpB0UNRJSWlXujTdb7dplZ0/VMh2hQjJ56R17WDzW9v7hk2/lvEem5+/MxvMqCgffQuEPyHcYA/Iv7ABzRp7kD7LlqHy6WkTHrSG5HMaZTra/o2Wv8BuyzT7t1vajX/WpnMPe4LZMzfcBRU60fh1vWnToZOOvMf+XXxdQWm2359vg5Buu8xb7G/P2nkOtus90Ax3AaCbJ2BdIRQEKe+ftNuj/NnJluHxdtnavuejsgjJw7TK1K9L2/59e4JcYfdjnYBH2jy/z+ZZ3EDHIS+prr5mlz/bfqcT+x9iy1VAqH3ypiifk7ZrrV32o7Y8d7J1QfmifeCn9qT+up1PwWs8H0vx9UJ2sulUIKI6okmBio4JoesKqWMh5ZXGMSpkuySkHoYIPV/E88Qft5Qmv6608iet4zwKKo3H2qJXpECtatpB/KQDdtxSW8F1paVJXQ9X9XW5q7H41Y+MybWZr9grVs2nV5kQLUtXcfobjVnRVZJ21qvtcgajA6NOFA/0bd4llEZ6QmldSV1Tyj/5epQmP+lvyxG6XaWE5nPoutRqs8Qe7ETLW9K36clZV8GF1pwul0d61YngKPt9OULyWdIoU1FLn1ridCCfFNtm30IkWte/2XUoTXqV+LpC0qwWPy1TrdhKs1p0dNLU57ikdYWYbWxwYNelVhCt61/zheVMLyqLpDxMq0xF61L98stRK9eMCuqG/lbTQHVV26zlHhRbrm6Q0O9qUfOStkvL0fdv2yBHy9d+o/3n5ih41AVCCF8vFOyK3vtJv0noukLqWEh5pXGMCtkuCa2HpZR7viglrfxJ6ziP6hD8pUg7ma5o/FQcAGhH1I0X6sbRNN1eWYlOoHHP2Kso7fTiX71toiLT1Z8X76Ip9rjdoXQlr5NzsTTSk6YF9opS1EWt9CiAVhrLFbpdpYTmcxrrEtUV15LWvvGuTdWn0fakXwvVlqluMvB0kaOWDAU+Sq9OCHFaV7UUYC6yy42nVeVRnPa01hXfX3RSUvC+ddH+nJSHaZZp8XYpPdqvyxFSV9XSo+Wq1UkOMIUTdbwlsNzt8vuN8lHDBHSir5Vq1hWyXWkdo0KE1sNSyj1flJJW/tQzDzG48o9CGJTGa+iA46f4SVA7zn+0jTMH2Z1FrT6ani06SdaCuhWVluIdfqjSU4quSj/d96ZrkeiKurb+q22L/juWQ9Rzu9Jel66q1ZoVnyq9Sq81H+z41j51AelkpUllVwtjotdm0ihlGlpXCy1SvWaanU/UCqjWwOLgtpnqajmStiuNY1QzSyN/sp6HjYLgr050da0r6v+JNXM/XkErhb9jVzdyeOqaKVda6Umbrm4VsKpb6hP2ACHldJPVM5/TzEOdXHVFH+8C0lTpVXo9KM272zxYnsu7lkDfAqDWibRpmQpEFMTUmta1ZxT8iFolFNS+VuZ2pVmmGrMVN9Hmta+jxfRbsXLq6q325Ky81qB/bXe8y1eGqq7WunUodLuqPUYVG2y70qiHlZ4v4vN7aeZP2nmI8hH81YnfCTVeQwdVdav4q2t9F3pg046mg8IH7N9rGbpaOi1XuLGkHGmlJ5QOOFqPJunM5zb5LOqSUheAn75gP4u6rkPVM5/TzEPdoKAulHltY926tDy9llsOIfmcFgV9GmivfNKJQQGKppX2+3KEpPkXNn8UvFzetsUm9UR5nrZbzXoXZPouqX/JFeqhukTLkVaZypp8n1uOlqE0qftNLXLFVBb6zeeRXqWcunpfdBPAWfbvJd7lK0nbpVd9p3IUvQ8JOAbzpyg9Kgdf7vpXOiR0XSF1LKS80jhGeaW2S9Koh6HnC9Ulbbu2T9O0tkK+xOtGWvmTZh6icgR/daKdUN3CuqLWLfQazOvvUtTBWg/8DPU/+TVuDJDuwju3bcxmV+Yh0kxPiI+0jXbr8Y9l0BVs/LOoWy8+ZlJjyZRGXSGGqmc+p7kudYVc2ve2mWSDJ93VquVpnWNtwFOOkHxOi7pstHzfzau8UoC23J5syhGSZp8/7k5Xm7e+jtSCBsarXBXI+nVo3WrlKEdaZSoKtHUS1zKUJnW/6Y7qYqqzCsR9Hnnl1FW1yigYUDkM1OWbtF1alr7T34veq4wrpbTrMSDiy333KOAIXVc5daxUeaVxjPJKbZekVQ9DzheqCxqmpHqjvPFdufG6kVb+pJmHqBzP+WsBuqLTjs1zkmqLfMZQUMuPDPRculrxdV1jusoNNtDYOI61lkrjMVr+mpB2Xt9kriZ47ci6Oi/unkF1yGdkibrx9EDny9u2dHVdrYsEfs2P4xgGQvDXhHSQ7m8yN+3uIK3nnRV3z6A65DOyRM/EU7ewnpmnViH/nEQ0N45jGAjdvgAAAE2Ibl8AAAAkIvgDAADIEII/AACADCH4A4AqzH3XnubD79g++gQAjY/gL0WHbDGh5Enghncf4aZaUxqWHnlC//SVKftGv1QmabskZJ5mpjy8++Dj+vN09tbviH7JjjTqUiNIcz9VPfjbbXcyX7QBIBpXvY69aWv14yqGDsFfik6ZNNnM23Wf6NPQufeNlWbuU4+4KQ0h29Uo214LCng+uM12ZsWGdebnr77opiVvvxX9imrppOyD6vhUq0Azzbp662uvmD+99br52SsvRN8A6Wnl4yqGFsFfC3puXZf5qT0ZaUL1jt5qonne5unJD/2f+cLSxW5SHiMdd77+mguoH3u78C9Y3Llqufv80OrX3edGd/rie8y8vzwWfQKAxsdz/lLgW4YGopOYggXx3Q7P2sDhhK3f6d7f/NrL5rOPP+jee1reCRPfaUa3tZsVG9a7ZVz63BPRr+VRC0o8DcVKrStku0K3XUqtS10b/gpXLSn3v7nK/O3kndy88TzaceRoc+72u7qAbGLHCPedfPuFp8vOo+L0XPnSM+aKl/4S/bpRUh4miW+b1qMg5xIbLJQTQPp8nnLXzf3vj//jHebQLSe4ZauV1wf7pbYrNJ/V3fTFnXc3e3ZuYbr6es0PX3rW/P32u1SVD0n8dsW3xQvdd0rxyx9IfLtC1lW8LJWpLg7i0qqrA5WFyuzmFS/3pzmpjvnftR3aJpX9qxvWufcDbVs1x5/zd5zq6spnHn/AtYx6393zQHP0+Emu3vp0laqron0vnrd+OwaqI6WElGlSHqqL/5u7T9us/EK2q9w8DK2rkpSHIULqWGhZJG17yH6R5nG+1VUaj7V3dHRcFL0PNr1jplnYfVv0CW/39pgHVr9u2k3O7DRqjNsZfrdquZvutSfXl9YX/v3EM96xg63II82b3RvMd+3OqfnfM+EdZniuzdzz5ko3j9/pb1i+zFzzynNmfV+fG1O0rrfXraNc/7jDFPPYmrfMb1e9Gn2zUdK6QrYrdNsT19XTY57sWm12HT3W5PN5u6zR5uplz5k3e7vdwXq5PVE9+vZb5vM77+GW8/ia1ebuN1a6bdP0m5Wv9q8rhE5QWv9Suxy1PCntM+3B3a9HB8Mjt9ra7G0PhseO38YexNaZUe3t7vP29sD0VFf4v37Q2T7c9NlXpbMtlzOHbbm1OXDcVubaMk5eW3d0uHTcuPwlM338RLPlsA63ve8eu5U9YI8z//aXJebNnu7E7QrN5//eY5rZaXSn+e6Lz5i7Xl9hjrIH4W1HjBq0LqXh+AnbuG1R3VEa4vy+02HzT9tlTN4cbvMxvu8kSXM/9cvS3xbqx/rNyjOtulpcFjNtPhWXRVId8/X4LVv+Sovy+vaVy80YW6eVj998fqmbL43jzzK7bR+0gcGWNk03rlgWfVvID+XF92xwIkl1VXT8iuet346B6kgpIWWalIfa57WczmHDXEDjXTJlH7N49Zv925VGHobW1ZA8DBFSx0LKImTbQ/aLtPadLKg0HqPbNwX32YOHrnxW2AOL6L2f9FvcGHvg+Phjf3S/6VXiVza60lG3l662NI9edbV1nN0Z05a0rpDtCt32pHXpilnfv20DGF19fvvFp93V6zUvP+9+V5Aje44Z617/+cmH3TL8VJzPSU60V6Y6kPmu3POeeMh9/x57MBM/1sa3BOjK3n/+++12cd+FUtp8OtVF+MNlz7pt1NVtudTSt5P9O+Xd5BEb/963OCRtV0g+K/DVbxrHpqts/f6DZYUT21DSvvOPjz/otkuvEt93koTWVUnaT/2yNA0mjbo6UFmozIqF1rFn1q7p707X8h6zJ9e4NI4/qmOL7An7IFtXPbWaKf/U0uwl1dW0hZRpUh4uemuVOcAGhP47bZdauOLblUYe+vqVVFfTyMPQOhYiZNtD9ou0jvMYHMFfnT2b0GKkg5ECDTWx+0k75qi29Iuqkdflu4u0s6urUzu+3LTiZfd6+4EzXFeOrjR18CrXDlEA5Wk9GtfnTwZan9arSXSl7z/7bo9QSt/Xd9/fpVfTMTYfRIFcKN3E46kF4z57slFaR7e3b7IdSdtVbKB8VmugLO3aGBjEu++GivYdH+T611pJ2k9DpFFXQ8sijTomaR0TfrPqVRcUqWVKjt6qkJ5fvLoxWC63rlYrqUxD8vCW1wplOnNC4W7/9279TtdNGu+KTCsPQ6SRh2nu7yHbHrJfpHWcx+DSr42omq6c1Mwfnyq9EkvSbOvSVelHHrnPXZWv7etzY0uu3ucQc87kd0VzNBa1EFy+14HmoHHjXSuLpmcqCCx8sONb+97q7TY7jxrjWgGVD2g89aqradUxL4391LVabVhvDt5ivPusV40zrHXQXqnQPFRQpO06JNouza9WzmL1PK42mqRtD9kvmu0434wI/mqgmisUHVh09RRv5tdUTcvLxOEd0btNlbuukO0abJ40t0tXt7q7Ul0zJz3wB/ddOV0qoqtjXZF6SreuopXONKnVQC0gX3/+yf6uC51YKqG0qTtE4w/VEuivptWV56WxXRo7KFNGF7peRN1bpWjwd7OpZj8NVW1dDSmLtOtYWvupbqhQF6nqhupgvGtUKqmr8XxIUzl5qK5fdWkrvcortcLHpZmH3mB1daj2dxmoLEK3PWS/SOM4j8Fxw0eKhrfl3KB5DY7XgHoNqj7MHiQWvr7C/a7BwhIfGF58Q0abyZlTttnOHLHl1marYR1myphOc/gWW9tlt1U00FVj1/Ybu6VNT6frejlp0rb9O2LoupK2S5LmSVqXDlq6wUKDrLcYNtwNWB7oxgp1y2g7tHxNZ227oz3YjHQDgePpSbL1cHVPTDTHj59k82cr88ntdjFj2oe5weDFA6VL3TSTRNugfNHAbd0wMmvCO10riAZT67tX7cEytFxPmrit2cb+3ZM2T1SHvvCuPc2WNrDXgGg/aD1pu0LyWe9Vbw6y6RzdNswN7D7Nlt1gN3zobseP2Svycm6+iFPX4El2fQpsVZbKF6VPN7n4sgjZd0KlsZ/q5KjAxg96V+vE+r5e99mnOY26GlIWIXVsy+HDXTr1N6/YMtd73eShdOkmG3/DR5rHHw32V1qVx6prCqh8oCEh+6DS4Y9f6mLda8y4/jpSzr6TVKbl7Kevd3e7gHZ3W1/H2O06Jxo/6KWZh0l1tZzj2GBC9/eQsgjZ9pD9Iq3jfBZUGo8R/KVIO5FOgDqYakfSa28+339nWMhJRXdE6c6oQ+wOrqZuHaT332Irc9cbKzY5QYfSyV1dE++2O63Ss9Quwwd/oetK2i5JmidpXZ+2+aBJJwnR7+rSjOeVfHDSdu7vtXxNxh5sbrHb8y9P/7kwQyAFKTq46QpeB7Qum7ZvPf+U+dHLz0VzbFRN8Kdt03pmTJhkTyjvsMHbSPPfLzzlDui6M08dtqHLPcVu+x72gPvw6jfd37zXLk/LvmHFS/0H+qTtCs1n1ZspozpdXquc9MiHvcZu4epPcXr3tetR/Yqnoxyf33l3N05IB3dRvqhsV9mTrF9XmsFfUl0NWdd/7rafDQB2cPknyk+91+QDqbTq6kBloXT79ITUMR/w6W9KBX9pHn90slcQoDqrLl9/N6wXsg/qrlfVT92R3G2DSXUfVrLvJJVpOfuptkvBkoKxu19/bZM7miXNPEyqq+Ucx0pJqmMSUhYh2x6yX6S172RBpfEYz/kDgCaillI9R68Znnnm06pxX+r+Q3NopjqWdZXGYwR/ANDAdCLWOCrRTT7qbtbYqjMW39OQN1CoS1SPGtl5dKcbf6YbAPyjVdCYmq2OYaNK4zFu+ACABnb0Vlu7B95q0glawVQjn5T1rEh1Q+pZkmo5IvBrfM1Wx1A9Wv4AAACaEC1/AAAASETwBwAAkCEEfwAAABlC8Ae0qL87eb05/uCND9UFhkKW6yH7IBoVwV+K9tipt+SOftn5XW7Kgl9/7W3z6Q+l+0+lFdPyf3TRGrcuTYft0xP9AuXFacd0m0+etiH6JpzqsM/TepRjs2vVepjGdg1WD9OuY0nH3lpIyp9q9sHBVJpXnJtQjOAvRccd3GPO+2tOlPWgA+B7D+82K9/KmVvuHu6mp1+iOnv3PDLMPLy03dx6z7Dom3CLn2o3l10zwk1ZpJOgP6HHp4FOuq1aD9ParsHqYdp1rN7H3pD8qWYfTBvnJhTjbImmdPCePebF5W3mvEtHm//63xFuWr6K6hz3xW+NMt+7ofyTq/Lx9vuHuymL7n90mDuZP/l8oT7d++fC58ef3bx+tWo9THO7BqqHzV7HQvOn0n0QqDWe85cCfxU4EJ00dGAQ36z+kj1oHHNgoYvg938cZuZfXfg3TT0t7+hpPWb0yLxZ+Ya9srxnuPnJgo7o12Q+PSf+U2f/+7MvHm323bXXXf3patsfdIvXdf0dHXYq/KZuAn+1qCvYR+zVuroxNG883epS+MRp681uO/SZrnU5c93vh5uPvHfDJtseqlR64tQSU8nyvfi2aT1LX2w337muo+wT3KTxfeZDx3e7k8GELTfuSlff0tFfZgOVuwKK4vWFlPupM7rNbFue203Sv6ZZKJdfLRzuWhnEl7enAEYnqLhytr3afJakNCelJ7Qeps3nZXx/KVZN/pwxa4PbT+Z9b2R/XsiFH19nDt27x+2zPg+S9gulI17WPs9Kpb2UUtsVUn9C6qFXTR4WryeueJlJeViOUmkO2faQc0Eax9XQ/KnXuQnpqzQea+/o6Lgoeh+s0n9IuFWtXpMzj/6l3eRyOXeC0wH3Xnsw1/Twk+3mtTcKB8XZh3WbCePy5q2uNvOz24e7+Y96d4/J25jhz0+3u3n8zqoD9k1/GG7Wd+fMB47tNmvtzv/4s4V5kowbkzeH7dNrlzHMHLB7rxk3Om9eWdlmdt+pz0zZvs9cfv0Is2Ztzp18tOxnlrW51o7JE/vMkTY9y1flzF9eajdv23meeanNbL9NIaiZbLftpj90mDffzrkDhJ/vSx9bZ7c7b376mw7z4BPDzP52ne+YkDdPvdDulhsqKT06GL57t17zrsl9bvtWvtlmOobl3edtxufdlXioEfaY39uXc2nU1h24R6/Zc+des8AezMpx9vs3uPJaapejbdfyNN2zeNhm5d7dm3MHyjdW2wPsAT1mC1tOd9v5JKTcFUR9/JT1ptsey+98YLh58dU2s++UPpcnOpGJr4uqe4U8ym22TeVs+9/M3lB2OcaFpDkpPaH1MG0H79Xr9hflZXz5adXD5a/nzMxDeswYGxcsfGBj/n78pPWuPt24sJA/SfuFqJziZe3TVpz2UkK3K6T+hNRDr5o6FnrsDcnDJKH5E7Lt/pgwzG6y0qNzgPIxfi5I47jaaOcmpK/SeCzsKIWSltiKrx3i9bdy7rPe+0m/xY2yF1KXfHek+02vMmGLwklN1IKkViFdkWkeverK8aC9Nh1MHEItfTpR6sp84lYb1+Gv0GfYAERXb77r4is/KKTnsH173avmUxq61hl39fm/9iCkK+Vf31U4kCmY1AFRv2lciwIb/a5WnUokpcePW/GtDmod8Z8/9J7yBlWrXLQOTeqa0VW1tkMteeXYZbtC2r72k8Ky/DRQuWs9vkzVgnXI3oW/lZByV+uZ8mfON0a533VVfumPR7jPnq+LmgaT1raHCE1zqfSE1MN6Sqsears09k37qaebBNSCrNZNL2m/SEvodoXUn5B6mAa/nqRjbxp5WE7++DSUomOC0hFPjz8XpHVcDc0fqee5CUOP4K/OXlxe2AkHowO/DirqVvCTDgKjRmzcCZPohOLpau7P9rN24pEdebezeroSVGDo6WCgq9fx4wY+mfquKc2nLmXt/Aou5bmXNy433oVVjqT0aH1aryZRt4X/XNytkkQH1zkfWee6OzSplUfiJ+IQCx8oHJCv/H+F5ejqWMsuVlzuy1a0ua4TL6TclT8q23j3mvI6/jlEWtseIiTN5aZnoHpYT2nWw3sWt7t6oJYpOWCPwjb/dtHGfajc/bRSodtVz/qTljTyMM1yFx0T/H5QvA+neVwNVY9zExrHpjUODUFXV2qej09q7QjlDyS+tW91lzHbTuxzB5S160vv4FmgFoqLz13nTlZP2xOCJt9lUy5dkc/5WqH1Q3mr8TDz/2mt6+4sV0i56+q8Gmlue6hSaR6K9DQStaCoRWqfKHDSq1qFi4OBRpH18sq6as9NaBzstTUwUMtPKJ0IdDXqm+b9VO5Vn5az6/Z97lEEannxV2dqcfJ00J4SdVuK0q0r5FVvhVcLjR2UHd+58Qq6kueBSRrpCaETl1pbfnRzh7ua1/TUC5WvQ60IuqNPXWCf+o9Cd2ZxV4jG7sRtNS7vBnF7IeWu/FHa491r5apk25XWSiWlOe2y8HRTQrO488FhZr8pheewqb7Hu3ylkv0ivj+mqVblVU0dixvs2FuvY0ta0jyuxg2WPyHSOjehMXDDR4ra7XFk+rQed5PFZHuyV3eIruQ1WFc0qFbig383H+ycM+85pMfsvUuvGTem0F2x35Q++63pH5wbQulQV++zy9rMb+4bbj5+8ga3vAceb+8fwDt2dN4cuk+vOWjPHjew/fT3bLAHduMG/GoQtA4UGuD87t363E0kGhxdPKBd79Xatc+ufWaYXayWc8xBPRXd8JGUnrhqBolrG5Q/GtSsAdsae6dyUpr13Qq7naF5re6vaba8VdaaTpre7fJdN3LEy324Tf5B9ne7eHPCET3uho8/PT4sNtA/udy1jEP27nE3Cez4jr7+9e6yXV9/meoEsbstNz8oXa2R69YXbgBQHpa77SpbDebfduvC+qbv39N/k0qIpDSHpGfilvnEehinu2X/6rjuTQarl0NdsBojpvGcKkulQ0GP1p1mPfTW2TKaeWiPu6FF67jsJ4UbsryQ/UL1Zq939blyOnzfHnfh59NeTn32Btuu0PqTVA/jqq1jknTsLefYEqJUuYdse9K5IM3jqjTSuQnpqjQeI/hLkXZYnXC0o+5rr+T1uqEnZ367qLBDhexgumtKd0/p73UC0sFDA9offKK87hUdODQeQ8vTsnVC0IFDY4n8AUgnxvH2intfe4DRwVfrvebWEebm/yuk7/SZ3ebMExQ0Fq7KlZZ32AN08Z1ruiLc3p7Ydeel0nqnDWh08tF4lXIOUknpiSt18E2ifNR6DrEHQJ1oxtuTpLoudHDUAU13MoYuV4PAFciprDXp9kfd1fqd6zaOQ1O56wTw/CvtLj81n7pP9HgMf5IPKXc/j7rv1VLk16mWXR/kXGCD0fcdWfh7UdnpvaZrbu0oe9tVtnu9q9fsaQMLrUsXE+WcmJPSHJIenTRD6qE3Zftes8fOfZvU9XLon+Q61AY1Cp5E6VCadZd2cb2oph56OnHqhKr9VV2+/i5fL2S/UCuy8kR3jHb3mIrrszfYdoXWn6R6GFdtHROlq9Sxt5xjS4hS5R6y7SHngrSOq5KUP/U8NyFdlcZjPOcPqDENipdKBoUjG9TaqGe4aQyVutIAIESl8RjhOgAMAY3xUxf1d77Y5QI/tQYT+AGoB4I/ABgC6jLTWEI9v1D/Iox/thoA1BrdvgAAAE2Ibl8AAAAkIvgDAADIEII/AACADCH4GyLz//1vzFl/fWT0CWhczVhX2b8AYHAEf0PghNnvNmefOd3M+9cPRd+UZ+HtF7opyYHTdq7qBKi/XfnSd/qn7/zX30W/VCYkPdWmeSgpf5Y8+B/9+aVy9hp1u0qlWaqtq2kKzcNGSnMrCj3+AGhcBH9D4OZbHzJ/fOAZ87+/uC/6pjbO+dix5rKvnhl9Kt9v73jMnPe5q9yUhpD0VJvmoaIg6oOnHmxWrFxtfn79/W56ePHz0a+NuV1JaZZ61dUQoXnYSGkGgEZE8DdEZr3/382cz/84+tSYXlq2yvzomrvchNKmHzHVPPvcCjP9+EvMJz/9PTcp/xpZaJqboa4Wa8Y0A0C9EPylIN49uuBXnzf/8qXTzPNLv+E+X/39f4jmKrS0+Pk0DdR1oq4tfa/ftQy/LP1tMS3bL2ug9ahVR/w8mgZaThq0XL/N6kZUur2Q9JST5lLrCi2LEPFlaT3X//Q8M3nb8dGvm5o0aQvX2lSsEbfLGyzN4tPtp+K6qq5VfR9PoyiP9H08n0ptV4jQPExKs89Dv98oH/374jxMSrO2T/PoN83jp3K3LYmWp+UWd8eH5PNnPzU7+qVA38fzxOeHXivh805Tcf6F7DtKi6ZSyynneAggXHtHR8dF0ftglf5Dwq3qtZVvmyeXvmx2n7qtydv/vWvnSeZ7P7jTdHVtMO+dtZ955ZU3zMOPPO9eH3jwGbPgN4vN7Jn7mRWvvWWu/NHCaCkF1171GbPTjhPN/1zxW/P7Ox4zJ7733e6g+djjL5mbbn7QzXP2WUebiRPGmrdWrzVf++YtZvToEeb4Y/c2o0Z1mDv/sKR/Pfp+xx22dt22Wqeflr38hltOOf75gvdvkoY4HYh1Yr7xpgfMFd//nc2BQhrXr+8x9y16Kig9oWlOWldoWYQYPrzd5am2O9fWZg47ZIqZftTu/WWmE9Pxx+xt9ttnB1eer61cbUZ0DHOfJ08eb5Y+9UrDbVdImsWnW2kcqK5qPo2rGzdutLn6Jxtbhr/6lb82ix95wfz35b9xn5O2K0RoHial2W/zm2+tNXffu9TtM7fc9rDp7BxpDj90N/Mfl97k5gtJ83y7nZpnyRMvu2Wpjmi69mf3VLR/Deapp181Z33kKPPOd2xpfvrze6NvjbnIBkFat89nBUVKo8pl4V2Pu3xSwBivF9qH43ni80P5FbpPiNZT6vgjSfuO+OUM72h3aVa9VjnElxNyPASyrNJ4jJa/FPju0TVd681ee2xn/n3+r8zXv3Wr+dp/3eJ+P+Lwqe5VrSylulF1Ytbfa6zSv375OrcMLWsgY+wJ69QPX+aWpVfZ9p1buVe/nuUr3nKf/To1DdbSUw11H+rgrW5DrUOvjy55sb+1IiQ9oWlOWldoWYTQerV8TepGvPKqhW6ZvgXDj0Hz49CmH7l7/+fPz3m/+67RtiskzeLTrWkwf3rwWVdnfX4orWNsIHD3vU+6z5K0XSFC8zAkzaKu7v+7+wn3XvvZkseXufdeSJr32H1b9/qxT17ufvdTPD1pULn/yS7zAJvPntKhVtt4Pp904jSzfPmb/V34Z/7dt933p558kHtNW6njjygffJ4MtO94Ws4ZZ33LzadX8ctR3Qo9HgIoD8FfDWjAuegAOGHyJ92BLcSeu092r4sXP+dexS+rmE5gjUInIgURvutGkw7ao0al/4/Ul7uuSstCdPJRN5Tvnjpm+h7u++Nm7OletSwtU5Pohgn/WSfhctRru9JM8zX/e7d7VQuY/PWHDnfBqU7UXj3rRlpC0vyL6xe518WLvuLqhloLVV9q4fobFrmg2ncpn/y+A9zrd6+8w72KWscef/Ll6FOhXugYMWFCZ/RNupKOP0n7jqfl+HGm/tUr53gIoDwEf0iFWkrUHRefanWVXo91qYXiup+eZw7YfyfXMqTp+RdWRr/WRj3zMA06Eau1aUZ0YldeqZWqWLNtlySlWa1QvkVr7dpu1/WuMYTF4+zSoNY15bO6REWBlYK74mCpUQzFvgOgPAR/DeS1VW+713333dG9SjndY4NJq0Vi0sRx0btN6cSkFgbf5eanwa7SQ9Iz2DzlrqtSaqFQa8tXvnqjay3T9FCsBaJSQ71daVPXr7oktV1qMbtjYWGslleL7QqpP9UITbMCMN1RrCDwsKMLQ6fT2F8H8usFD7vt1o0UauWLd/mKWtB23+2d0adCHmm+lSsLx5SBxI8zaUpr36nkeFjpzStA1nDDRwp0oNUg+qOO2N1sueUYN8g6Pnje04HrsIN37R9o3dW13qxbu8F91oBrzf/hDx5qDj5wFzNu3CjzbnvQO9MezDQGJj7AWQOlJT54eqAbMvr68ua0kw8ys47fx+xr1/H+E6aZGdP3NLfd/kg0Rzilaz+bnn333sHMes++5vQPHmauu6HQ9TVsWLv5q9MOMcfZPJgwvtNMnfIOt57e3t5NBr+HpCdpnqR1hZZFEv2N0qHB7Loh4pSTDnQtLyoLfff0X17dZNtK3RAjjbJdcaXSnFRXvedfeM187G9nmGn772TGjBlhTj/zm9EvBaF1I0RSHial2X+vbX7hhZXuvW7y0HL23GNy/w0fIWlWl6b2A/2tpnPPOc5dHC2waSnev9Ql/MMrzt3k5otyrbKBkI4FuuFH5X/OP3zPrF69NvrVuBtCjp2xl3nfCfubQw+eYs779GxbHiPdDRl+ndoeHVO0Dysftc1K80D1uZSk40/ovpO0nNDjoac7ij/58eNM/IYRoNVxw8cQ8oPodaUtxYPnPX3nB9eL5o9/lgsv/rm7iv/Hf5hlLvinEza7wi+HWiq+8d8L3HuNy9K0z17bu8/lUrrUIqLuLT/Gy1MX2MX/dr3ZekKn+X9fPNVtj9KulqC4kPQkzZO0rtCySKJ0aDycWrW0DA2o17pF48G0nnI0ynaFCqmr4seWaUzcQF2+oXUjRFIehqY5SUiaFej6NGjSXauqL6WeLajWw0opnzVpmwbq8tU4S61fvys9om2Ir1PbpRtXtA/vsMOE/m7sSupzKWnuO+UcD59+Zrl7fSZ6BTC4XGdnp55kUJa5Y+abeWvmRJ9QSxrkrQOfTnrxgfQAmoNueFBwuMf+/1/0TWX8sUDjD6sJJJsZx0NgU5XGYwR/DUYHN/+oA13Fq7tPLW7Hn/jvDTvAG8DgFPzpphCNDSyXxrDpcS07bD/BHQ90I4p/tEoWcDwESqs0HqPbt8Ecd8xe/V1J6nbSwZ4DHdC81CWurstK6PmN6j7VI3TU2pWlwE84HgK1QcsfAABAE6LlDwAAAIkI/gAAADKE4A8AACBDCP4AAAAyhOAPAAAgQwj+AAAAMoTgDwAAIEMI/gAAADKE4A8AACBDCP4AAAAyhOAPAAAgQwj+AAAAMoTgDwAAIEMI/gAAADKE4A8AACBDCP4AAAAyhOAPAAAgQwj+AAAAMoTgDwAAIEMI/gAAADKE4A8AACBDCP4AAAAyhOAPSMlll11mzj777OhTbdVzXQCA1kLwBwzizjvvdFOI973vfebDH/6wmTt3bvRN7dRrXQcddFDJALOc/Gl2y5YtM1dccUX0KT3kIYChQPCHzNEJSCeiwaZKWtRuuukm88gjj5gbb7wx+qZ26rWuT3ziE+bLX/5y9AkA0CoI/pA5d999t/n1r3/tpvvuu899p1f/3Z///Gf3XblmzZplzjvvvOhTbdVzXQCA1kLwh8y58sorzTnnnOMm33qmV//dokWL3Hfej3/84/5WQb2PK25FHKgLb/LkyW4+tdbF573ooouiOcLUa11+PSeeeKL7HF+OfitWKn9Ef/P000+735WuSrc7/l7bqRZavY+31Bav6/zzz49+Mf3za1qwYIFLh583nm51dytv9b1+Lze9caXSE+fzUPNef/31bvu80DLVsu+///7+37WNGiLg6bt4nSnOv9D8keLtKk5LOXmo8auaL16OAGqrvaOjo+wj2/SOmWZh923RJ6B57b///ua4444zv/vd78xDDz0UfVugk9H48ePN6tWrzbe//W3T2dlpjjzySDN27Fhzxx13uHleeeUV11Kov9dyVq1aZX7wgx+437xLL73UBVI6Cf7xj380S5cuddO1117rTnqh6rUuvx5t73bbbWe+9KUvuXVquuWWW/qXE5I/ChKUnttuu8388Ic/NLlczpxxxhkmn8+be+65x82TZOutt3bbq2044YQTzLhx48zy5cvN4YcfbnbbbTfz+c9/3qVBAYaW/eyzz5p7773Xpf344493+aSyXbFihXnuuefM1KlT3XJ33nlnc9VVV5n169ebY445pn++n/zkJ+5vdZFw1113mRkzZphtttnG5eOvfvUr97chktIjPg97e3vNN77xDfPGG2+4Vt399tvP/PSnP3XzhJSpAr85c+aY7u5u8/vf/9689NJLZt999zVHH320Kxu54IILNqkzxXU/NH9CyrScPDz33HPdvNo+X28AhKk0HsvZA3Y+eh9s7pj5Zt6aOdEnoHnp5KtxbQpwdKKKU8uFTkq77LJL9E2h9URdw2ohLKbfdHLTCTdOy5kyZYprDdFJOQ31WJc/yW+77bbRN5sKyR+1Cj311FPm1FNPdZ9Ff7du3ToX5ISIl9FHP/pRF4Q8/PDDrkUsnj61eo0aNcrss88+7rPy4IYbbnBd+sXrVx5pTKPGT/r5lO7LL7/cvVfg5bvV1Xqm7wcr98GEpEdpUfDn5xG1/Clw8/kaUqZ+XbNnz+6fR+l+8MEH+z8X15nB6n6p/NH2J5Wpn7+cPFRaivc/AMkqjcfo9gVKePHFF6N3ldOJUNSdrJOkgiqdIGuhnuuSpPyZMGGCOeSQQ1zg4ScFFiNHjozmSKYWJk+B0h/+8AcX+I0ePdoFM54CUQUlnvJA6dPfDESBjWg+BZAKSvbee2/33eLFi92r+PnKFZoeBbNxr732mgvkvJAy1bqU5nhwqHRXcwEwUP5IUplWkocEfkB9EfwBNaZuu5NPPtm1hKh15Nhjj3Un9MHGf1WjnusKpZYutS7Fp69+9avRr8l8ALPjjju619dff93ssMMOLuDRNrYaBbVxoWVa/He1VG2ZAhhaBH9AHaj1RF1g6habPn26+y6027Ncaa+rmpbDlStXupYutezEp3Jb07QcjYNTK5laAn0r0/PPP+9eRa1qu+66a/SpkG4FiMUta6Vo3Juo29WL3zRRjkrSoxbNQw891HWtxiWVqdalNMdvFEkS38ZyJJVpJXmobl8A9UPwB1RBJzWduPzJS9118c+iOyXVVeena665xn3/2GOPuddQ9VyX+O7G73//+/3L052Z5VBQoC5B3T2qliqlVa/lBpQKmBTYKMhRS6CCKE3xbs2bb77ZdUn6rlGlW/wd3Vqn1u+7VPW+OChRAKN1nHTSSe6GDaX1M5/5TPRreZLS4/ly1Po03k/iD/AOKVPd/KHlLFy4cJP543fZKqBUWeh3TdOmTXPfa1uVNyH5I0llWm4eaps19jCeVgC1RfAHVOFzn/ucO3FpEgUk8c+i7jjdmOAntZpo4LsfDB+qnusSncQ1SF/88vbcc0/3OZS6LOfPn2+22mordzeq0vqpT33K3flZDnV3anu7urrcZwUXClJ0d6qn4EHbqvmUVtG6FayIf2i1fhe9V54Wu/jii93yNb/SqjtY165dG/0aLik9ni/HM8880wWzp59+umvp80LK1OezWuV0Z66fN+6b3/ymGyOp37VO302r8Xva1tD8CSnTcvJQd0NLvCwB1BZ3+wIAADQh7vYFAABAIoI/AACADCH4AwAAyBCCPwAAgAwh+AMAAMgQgj8AAIAMIfgDAADIEII/AACADCH4AwAAyBCCPwAAgAwh+AMAAMgQgj8AAIAMIfgDAADIEII/AACADCH4AwAAyBCCPwAAgAwh+AMAAMgQgj8AAIAMIfgDAADIEII/AACADCH4AwAAyBCCPwAAgAwh+AMAAMgQgj8AAIAMIfgDAADIEII/AACADCH4AwAAyBCCPwAAgAwh+AMAAMgQgj8AAIAMIfgDAADIEII/AEPm7LPPNsuWLRt0auV5AGCo5Do7O/PR+2Bzx8w389bMiT4BQGUmT55sZs6cGX3a3JVXXtmy8wBAtSqNxwj+AAAAmlCl8RjdvgAAABlC8AcAAJAhBH8AAAAZQvAHAACQIQR/AAAAGULwBwAAkCEEfwAAABlC8AcAAJAhBH8AAAAZQvAHAACQIQR/AAAAGULwBwAAkCEEfwAAABlC8AcAAJAhBH8AAAAZQvAHAACQIQR/AAAAGULwBwAAkCEEfwAAABlC8AcAAJAhBH8AAAAZQvAHAACQIQR/AAAAGULwBwAAkCEEfwAAABlC8AcAAJAhBH8AgNSsXr06egegURH8AQAAZAjBHwAAQIYQ/AEZdtlll5mzzz47+gQAyAKCPyCj3ve+95kPf/jDZu7cudE3mzrooINaLjC888473dRsWrEsAAwdgj+gCZQKWpYtW2Z+/OMfR5/C3XTTTeaRRx4xN954Y/TNpj7xiU+YL3/5y9EnDCXKAkCaCP6AJjFq1Kjo3ea6urqid+WZNWuWOe+886JPAIAsIPgDmsCTTz5ptttuO/de3bVXXHGF6wrUe1myZInrFlQroKYFCxaYiy66yDz99NObtQzqb/18mopbFP3vJ554ovscn1e/xemzX4daEbXOcsXTrWVcf/31ZvLkydGv5Tn//PPN/fff37885YPPozjlh5+nuNU0KT2h+Ry6XaXSnFZZhKbZ01hQ/aa/A9B62js6Oso+Wk/vmGkWdt8WfQJQayeddJLZbbfdzH/+53+az33ucy4Y+POf/2zGjBljjjvuOPPrX//a3Hbbbea5554zU6dOdX+z8847m6uuusqsX7/eHHPMMWbVqlXmoYceMq+88or729/97nfub/X9D37wA/c34n/v7Ox0AeeXvvQlN6+mW265xQUFomBD6dB6f/jDH5pcLmfOOOMMk8/nzT333OPmCTF8+HAzbtw4s3TpUtPW1mamTZvm0htPUwgFUXPmzDHd3d3m97//vXnppZfMvvvua44++mjz7W9/282jYGb8+PFGz6LTd9rGI4880owdO9bccccdbp6k9KxYsSIon0O2KynNaZVFaJq9c889161PAaLPl1Bf/OIXzVe+8pXoE4BaqjQey9mDSj56H2zumPlm3po50ScAteaDBI39+sxnPmNGjhzpWgPV4qfvTz75ZLNo0SI3r1rypkyZ4ubVuD61EN5www0uQDznnHPcPJ6CBwUnCjaK+YBi2223jb7ZlFqXnnrqKXPqqadG3xTWvW7dOtedXCm1OulGFKVbwVAotZ6pa3z27Nn9f6cWtAcffLD/s9KnoGaXXXZxn0V5MFDeeIOlp5x8loGWE5JmSassykmzAuUrr7wy+hROgbWCaQC1V2k8Rrcv0ARef/119zpx4kQX+L344otm9OjRZo899nDf+8AvTid30W8KGgYLbio1YcIEc8ghh7jgyU8KLJS+cigAUdejAhNNRxxxhPt+5syZ7jWUgrrFixdvEjQpD+KfRXlXSrnpGSyfQ5YTmuYk5ZZFSN2oJPAD0BwI/oAmoO482WqrrdxJ/fbbb3eBg6xcudK9DoX77rvPdUXGp69+9avRr8k0Bu7aa691XZ1qydRUbuATp4C4Gmmlp5zlVJtmr9qyAJAdBH9AE/CBwwEHHGDWrl3rxoFp7NoOO+zgxmvVklqwBqKgU2lQC1F88q1KIdQKpm7PSy+91LU+aXr44YejX8ujFj0FWwPdVBEqrfSELqfcNNeyLIpxswfQurjhA2gSH/3oR90NBAr29My3Cy+80N0o8Pbbb5urr77aBQYa33XYYYf1z6fWQbU6xWlMmbog999/f3fDh4LJnp4e9zk+6F83C7z//e93gYxuVtBNJ8cee6y7W1QU3PjfJ02aZHbffXf3u5albscQSp+WoRsa1AJ2yimnuPRvs8027ru//OUvwcvSODONXTzzzDNdF+h73/tel2YFzP6mBR/QxG+6uOCCC9y4x1/96ldB6VGglpTPodsVkmaptixC64anO5PPOuusTW6ECcUNH0D9cMMH0OI0bkxdvhrcrxO5XjXWyw/W9zcFxA10M4dfzkCKbyjQI0E+8IEPuPWIX7enG1FOP/10F0iIAsnPfvazZbU4Kd0KVBTAqCXs4osvNpdffrn7rdSNGAMpTo9oWf6xJ9p2ieeJgqP4epLSIyH5HLpdSWn2qimL0Lrh+ZtT1HWsFsRycMMHUD+VxmMEfwCA1BD8AfXD3b4AAABIRPAHAACQIQR/AAAAGULwBwBIDeP9gMZH8AcAAJAhBH8AAAAZQvAHAACQIQR/AAAAGULwBwAAkCEEfwAAABlC8AcAAJAhBH8AAAAZQvAHAACQIQR/AAAAGULwBwAAkCEEfwAAABlC8AcAAJAhBH8AAAAZQvAHAACQIQR/AAAAGULwBwAAkCEEfwAAABlC8AcAAJAhBH8AAAAZQvAHAACQIQR/AAAAGULwBwAAkCEEfwAAABlC8AcAAJAhBH8AAAAZQvAHAACQIQR/AAAAGULwBwAAkCEEfwAAABlC8AcAAJAhBH8AAAAZQvAHAACQIQR/AAAAGULwBwAAkCEEfwAAABlC8AcAAJAhBH8AAAAZQvAHAACQIQR/AAAAGdLwwd/wc40ZNjv6AAAAgKo0dPDXfqQN/k4zpuMfoi8G0XGeMaOuNWb0bYVJfwcAAIDN1T34G/mtwhSi9y5j+h4xpvvm6IsBKPAb9l5j8iuN6bmlMPU9Hf1YR7l32rR80QafNxYCUAWjarWMa7R5AABA9jR8t++6C2zw9z/RhwG0H2IDv2V2vk8Zs+GywpR/OfqxjoafbYPQGTb4/L1Nw6U2DU/Z707bNOBqtHkAAED2NGTwp9Y8tVb5qVRLYW68Mb0PRx8G4JYVb/06K/qhiIIizVPJ+MK2faJA6w4baNngs+dWG4zONaZvaeH7RpwHAABkU0MGfz2326Dl0sI0EBfc2CDNB2ptEzZ+jo/3813CvvWr9z4b5H3ETh+MZohp367wmptUeC1H+9TCa98DhVev76lCcKr0Nto8AAAgmxoy+NM4P7VWaRrIsONtYHd+YZK2gzd+Hn5G4TtRl3Df/Rtbv/Sq1q/2w6IZYtQypgCx+0fRF2XIbR+9KdK3pPDaNrnx5gEAANnU8GP+BqIgrmtmYRLd5OE/a+yf51q5bGAY70Jum2J/GFn4vdhgwSYAAECraMrgrxyu5S/qQvZT90+iH1OSfyF6U6Rtj8Jr30uNNw8AAMimlg7+8qvsf7ba2IXsJz1CZiCV3OwhvU8UXtumFV69tl0LaVA3dqPNAwAAsqm9o6Pjouh9sOkdM83C7tuiT+UZdqIxuQk2ENm+MPYuPvXeW5hHN22071kIVtz4vPV2Wlf4rJsW4oafWfjO/21czk7DZtplvNu+H2f/fofCe9Nug6DlbpZ+I+fZeXUjiP2jvhJ3Dw9Ey9JNFu1H2D/f2k5b2mV9yH4+wKbrjkLaGm0eAADQ3CqNx4Yk+Gvbzk5TNp+6ryrMM+Kf7Xzvs4lT4Gflxhbea/LzeKWCv77H7H/W2r+zAV/7jGgZe9l5/2QDpOcL83i53exve9jfbt88wAzRu8QuYyub7qPscuykYFOBlsYneo02DwAAaF6VxmO5zs7OfPQ+2Nwx8828NXOiTwAAAKi3SuOxlr/hAwAAABsR/AEAAGQIwR8AAECGEPwBAABkCMEfAABAhhD8AQAAZAjBHwAAQIYQ/AEAAGQIwR8AAECGEPwBAABkCMEfAABAhhD8AQAAZAjBHwAAQIbkOjs789H7YHPHzI/eAQAAYKjMWzMneheOlj8AAIAMqajlDwAAAM2Jlj8AAIAMIfgDAADIEII/AACADCH4AwAAyBCCPwAAgAwh+AMAAMgQgj8AAIAMIfgDAADIEII/AACADCH4AwAAyBCCPwAAgAwh+AMAAMgMY/5/ZYrSpVGkS1IAAAAASUVORK5CYII=;" vertex="1" parent="1">
          <mxGeometry x="72.5" y="1220" width="639" height="473" as="geometry" />
        </mxCell>
        <mxCell id="Nl1uWJzNFhn3NTG8wATY-44" value="23" style="text;html=1;strokeColor=none;fillColor=none;align=center;verticalAlign=middle;whiteSpace=wrap;rounded=0;" vertex="1" parent="1">
          <mxGeometry x="8" y="1650" width="60" height="30" as="geometry" />
        </mxCell>
        <mxCell id="Nl1uWJzNFhn3NTG8wATY-46" value="16" style="text;html=1;strokeColor=none;fillColor=none;align=center;verticalAlign=middle;whiteSpace=wrap;rounded=0;" vertex="1" parent="1">
          <mxGeometry x="7" y="1510" width="60" height="30" as="geometry" />
        </mxCell>
        <mxCell id="Nl1uWJzNFhn3NTG8wATY-47" value="18" style="text;html=1;strokeColor=none;fillColor=none;align=center;verticalAlign=middle;whiteSpace=wrap;rounded=0;" vertex="1" parent="1">
          <mxGeometry x="7" y="1552" width="60" height="30" as="geometry" />
        </mxCell>
        <mxCell id="Nl1uWJzNFhn3NTG8wATY-48" value="20" style="text;html=1;strokeColor=none;fillColor=none;align=center;verticalAlign=middle;whiteSpace=wrap;rounded=0;" vertex="1" parent="1">
          <mxGeometry x="7" y="1588" width="60" height="30" as="geometry" />
        </mxCell>
        <mxCell id="Nl1uWJzNFhn3NTG8wATY-49" value="21" style="text;html=1;strokeColor=none;fillColor=none;align=center;verticalAlign=middle;whiteSpace=wrap;rounded=0;" vertex="1" parent="1">
          <mxGeometry x="6" y="1608" width="60" height="30" as="geometry" />
        </mxCell>
        <mxCell id="Nl1uWJzNFhn3NTG8wATY-50" value="22" style="text;html=1;strokeColor=none;fillColor=none;align=center;verticalAlign=middle;whiteSpace=wrap;rounded=0;" vertex="1" parent="1">
          <mxGeometry x="7" y="1630" width="60" height="30" as="geometry" />
        </mxCell>
        <mxCell id="Nl1uWJzNFhn3NTG8wATY-51" value="11" style="text;html=1;strokeColor=none;fillColor=none;align=center;verticalAlign=middle;whiteSpace=wrap;rounded=0;" vertex="1" parent="1">
          <mxGeometry x="6" y="1414" width="60" height="30" as="geometry" />
        </mxCell>
        <mxCell id="Nl1uWJzNFhn3NTG8wATY-52" value="2" style="text;html=1;strokeColor=none;fillColor=none;align=center;verticalAlign=middle;whiteSpace=wrap;rounded=0;" vertex="1" parent="1">
          <mxGeometry x="6" y="1250" width="60" height="30" as="geometry" />
        </mxCell>
        <mxCell id="Nl1uWJzNFhn3NTG8wATY-54" value="16&amp;nbsp; &amp;nbsp; &amp;nbsp; &amp;nbsp;Galge,træ, ObscText" style="shape=internalStorage;whiteSpace=wrap;html=1;backgroundOutline=1;dx=41;dy=20;" vertex="1" parent="1">
          <mxGeometry x="259" y="1740" width="171" height="70" as="geometry" />
        </mxCell>
        <mxCell id="Nl1uWJzNFhn3NTG8wATY-55" value="Indhold" style="text;html=1;strokeColor=none;fillColor=none;align=center;verticalAlign=middle;whiteSpace=wrap;rounded=0;" vertex="1" parent="1">
          <mxGeometry x="296.88" y="1738" width="60" height="30" as="geometry" />
        </mxCell>
        <mxCell id="Nl1uWJzNFhn3NTG8wATY-56" value="Pos" style="text;html=1;strokeColor=none;fillColor=none;align=center;verticalAlign=middle;whiteSpace=wrap;rounded=0;" vertex="1" parent="1">
          <mxGeometry x="254.88" y="1738" width="60" height="30" as="geometry" />
        </mxCell>
      </root>
    </mxGraphModel>
  </diagram>
</mxfile>
